# xmcd CD database file
#
# Track frame offsets:
#	150
#	15567
#	28465
#	45815
#	60240
#	79510
#	89257
#	105445
#	120670
#	142620
#	155745
#	168757
#	186095
#	203965
#	218320
#	227595
#	240152
#	250757
#	263282
#	277105
#	293867
#	309820
#
# Disc length: 4277 seconds
#
# Revision: 3
# Processed by: cddbd v1.5.2PL0 Copyright (c) Steve Scherf et al.
# Submitted via: CDex 1.91
#
DISCID=0710b316
DTITLE=Igor's Jazz Cowboys - Adios Arizona
DYEAR=1993
DGENRE=Jazz
TTITLE0=Route 66
TTITLE1=San Antonio Rose
TTITLE2=Orange Blossom Special
TTITLE3=Jalisco
TTITLE4=House of the Rising Sun
TTITLE5=Little Liza Jane
TTITLE6=Midnight Special
TTITLE7=Closer Walk with Thee
TTITLE8=Wayfaring Stranger
TTITLE9=I Get All My Sunshine From You
TTITLE10=Suddenly the Light Came On
TTITLE11=Black Jack County Chain
TTITLE12=Midnight in Moscow
TTITLE13=Cool Water
TTITLE14=Let There Be Jazz
TTITLE15=May the Road Rise Up to Meet You
TTITLE16=My Kinda Crazy Is You
TTITLE17=The Beeper Song
TTITLE18=Sunday Morning Friends
TTITLE19=Love Me in the Afternoon
TTITLE20=If You and I Believe in Love
TTITLE21=Adios Arizona
EXTD=YEAR: 1993
EXTT0=
EXTT1=
EXTT2=
EXTT3=
EXTT4=
EXTT5=
EXTT6=
EXTT7=
EXTT8=
EXTT9=
EXTT10=
EXTT11=
EXTT12=
EXTT13=
EXTT14=
EXTT15=
EXTT16=
EXTT17=
EXTT18=
EXTT19=
EXTT20=
EXTT21=
PLAYORDER=
